<svg xmlns="http://www.w3.org/2000/svg" width="1200" height="760" viewBox="0 0 1200 760"><rect width="1200" height="760" fill="#0b0b0b"/><rect x="56" y="50" width="1088" height="660" rx="26" fill="#111" stroke="#2a2a2a"/><text x="96" y="126" fill="#f0ede8" font-family="Inter,Arial" font-size="34" font-weight="700">Storefront</text><text x="96" y="160" fill="#6b6b6b" font-family="Inter,Arial" font-size="18">Product browsing with availability and booking-aware inventory.</text><g fill="#151515" stroke="#2a2a2a"><rect x="96" y="230" width="290" height="350" rx="18"/><rect x="456" y="230" width="290" height="350" rx="18"/><rect x="816" y="230" width="220" height="350" rx="18"/></g><g fill="#252525"><rect x="126" y="260" width="230" height="130" rx="14"/><rect x="486" y="260" width="230" height="130" rx="14"/><rect x="846" y="260" width="160" height="130" rx="14"/></g><g font-family="Inter,Arial" font-size="22" font-weight="700" fill="#f0ede8"><text x="126" y="440">Premium Plan</text><text x="486" y="440">Event Slot</text><text x="846" y="440">Addon</text></g><g fill="#c8f135"><rect x="126" y="502" width="120" height="42" rx="21"/><rect x="486" y="502" width="120" height="42" rx="21"/><rect x="846" y="502" width="120" height="42" rx="21"/></g></svg>
